<svg width="61" height="26" viewBox="0 0 61 26" fill="none" xmlns="http://www.w3.org/2000/svg">
<g id="SVG">
<path id="Vector" fill-rule="evenodd" clip-rule="evenodd" d="M60.14 14.78H52.08C52.27 16.71 53.68 17.33 55.28 17.33C56.92 17.33 58.24 16.96 59.33 16.38V19.7C57.9468 20.4959 56.364 20.8777 54.77 20.8C50.76 20.8 47.94 18.3 47.94 13.32C47.94 9.13 50.33 5.8 54.24 5.8C58.16 5.8 60.2 9.08 60.2 13.3C60.2 13.7 60.16 14.56 60.14 14.78ZM54.22 9.16C53.19 9.16 52.05 9.89 52.05 11.74H56.3C56.3 9.89 55.23 9.16 54.22 9.16ZM41.45 20.8C40.01 20.8 39.13 20.2 38.55 19.76L38.53 24.39L34.41 25.26V6.07H38.17L38.25 7.09C39.1221 6.26279 40.278 5.80115 41.48 5.8C44.38 5.8 47.1 8.4 47.1 13.2C47.1 18.43 44.4 20.8 41.45 20.8ZM40.5 9.45C39.55 9.45 38.96 9.79 38.53 10.26L38.55 16.38C38.95 16.82 39.53 17.16 40.5 17.16C42.02 17.16 43.04 15.51 43.04 13.29C43.04 11.14 42 9.45 40.5 9.45ZM28.74 6.07H32.87V20.51H28.74V6.07ZM28.74 1.37L32.87 0.5V3.86L28.74 4.74V1.38V1.37ZM24.42 10.72V20.51H20.3V6.07H24L24.12 7.29C25.12 5.52 27.19 5.88 27.74 6.07V9.86C27.22 9.69 25.45 9.43 24.42 10.72ZM15.87 15.44C15.87 17.87 18.47 17.12 18.99 16.9V20.26C18.44 20.56 17.45 20.8 16.1 20.8C15.5373 20.8164 14.9772 20.7182 14.4537 20.5113C13.9302 20.3044 13.4543 19.9932 13.0549 19.5966C12.6554 19.2 12.3409 18.7262 12.1303 18.2042C11.9197 17.6822 11.8176 17.1228 11.83 16.56L11.84 3.39L15.86 2.53V6.07H19V9.6H15.87V15.45V15.44ZM10.96 16.14C10.96 19.11 8.65 20.8 5.23 20.8C3.69532 20.7988 2.17725 20.4823 0.77 19.87V15.94C2.15 16.69 3.87 17.25 5.23 17.25C6.15 17.25 6.76 17.01 6.76 16.25C6.76 14.27 0.5 15.01 0.5 10.45C0.5 7.54 2.78 5.8 6.12 5.8C7.48 5.8 8.84 6 10.21 6.55V10.43C8.94396 9.76369 7.54035 9.4008 6.11 9.37C5.25 9.37 4.67 9.62 4.67 10.27C4.67 12.12 10.96 11.24 10.96 16.15V16.14Z" fill="white"/>
</g>
</svg>
